<svg viewBox="0 0 18 24" fill="none" xmlns="http://www.w3.org/2000/svg">
<path fill-rule="evenodd" clip-rule="evenodd" d="M14.7123 23.8695C16.2238 22.7712 17.9529 20.0634 17.8224 16.029C17.6484 11.092 13.5378 8.51473 11.3847 7.85138C11.2759 7.81876 9.52515 7.29678 9.28591 5.44812C8.73131 1.20707 4.45764 0.0326235 2.28274 0C2.087 0.043498 1.85864 0.108745 1.74989 0.260988C1.6194 0.43498 1.5759 0.652469 1.63027 0.84821L1.96738 2.0879L1.84776 2.19665C1.45628 2.57725 0.80381 3.40372 0.847308 4.63253C0.869057 5.06751 0.760312 5.4155 0.542823 5.62211C0.292709 5.89397 0.151341 6.26371 0.17309 6.61169C0.183964 6.97055 0.336207 7.29678 0.608069 7.53602C1.1083 7.98188 1.95651 8.5256 3.13095 8.60172L3.47893 8.62347L3.37019 8.96058C3.05483 9.89579 2.77209 11.353 3.14183 13.0059L3.32669 13.7562C3.64205 15.0285 4.07703 16.7685 3.93566 18.0734C3.83779 18.976 3.47893 19.4218 2.66335 19.672C1.59765 19.9873 0.825559 20.8681 0.695065 21.9121C0.597195 22.7277 0.934304 23.4672 1.60852 23.8804C1.70639 23.9348 1.83689 23.9674 1.96738 23.9674H3.45719L3.21795 22.6189H2.1305L2.087 22.4015C2.087 22.4015 2.0435 22.2166 2.06525 22.0752C2.11962 21.662 2.45673 21.1618 3.0657 20.966C4.38152 20.5637 5.12098 19.6393 5.2841 18.2365C5.44722 16.7467 5.03399 15.0177 4.65338 13.4844L4.46851 12.6905C3.97916 10.5591 4.87087 8.76484 5.18623 8.21024L5.22973 8.12324C5.39284 7.89488 5.39285 7.57952 5.21885 7.34028C5.05574 7.11192 4.75125 7.01405 4.47939 7.09017C3.44631 7.40553 2.53285 7.28591 1.76077 6.74218L1.5324 6.57907L1.69552 6.3507C2.05438 5.87223 2.21749 5.27413 2.19574 4.56729C2.15225 3.68645 2.77209 3.14273 3.04395 2.94699C3.33757 2.773 3.45719 2.45763 3.38106 2.16402L3.17445 1.41368L3.60943 1.50068C6.13231 2.02266 7.67649 3.47984 7.94835 5.61124C8.31808 8.40598 10.8627 9.09107 10.9715 9.11282C11.1998 9.18894 16.2456 10.9071 16.4305 16.0507C16.5392 19.2805 15.3213 21.5206 14.1359 22.5428L14.0598 22.6081H6.74128V22.3362C6.74128 22.01 6.80653 21.7599 6.95877 21.5641C7.39375 20.9225 8.49207 20.8573 8.53557 20.8573H9.27504C9.68827 20.9008 10.0363 20.705 10.2211 20.3897C10.4169 20.0308 10.3407 19.5741 10.0363 19.2913C8.14409 17.5949 8.5247 15.6158 8.91618 14.5936C9.0358 14.2891 8.91618 13.9302 8.64432 13.7671C8.47033 13.6584 8.26371 13.6366 8.06797 13.7019C7.87223 13.7671 7.73086 13.9193 7.65474 14.1151C7.33938 14.9524 6.75216 17.1164 8.12234 19.1717L8.35071 19.5197L7.94835 19.5958C7.42637 19.6937 6.45854 19.9764 5.86045 20.8138C5.51246 21.3031 5.18623 22.1731 5.58859 23.5215L5.72995 24H14.2991C14.4513 24 14.5818 23.9565 14.6905 23.8804L14.7123 23.8695Z" fill="black"/>
</svg>
