<svg viewBox="0 0 24 24" fill="none" xmlns="http://www.w3.org/2000/svg">
<g>
<path fill-rule="evenodd" clip-rule="evenodd" d="M15.1701 8.13008C15.4401 8.35008 15.7401 8.51008 16.0501 8.65008V8.61008C17.3501 9.18008 23.1201 12.0901 23.1201 18.3601C23.1201 20.5701 21.7701 22.9401 18.0101 22.9601H10.7201V22.3501C10.7201 22.3483 10.72 22.3452 10.7199 22.3408C10.7171 22.2194 10.6908 21.108 11.5401 20.2201C12.0501 19.6901 12.7601 19.3701 13.6401 19.2301C13.0201 18.4701 12.6701 17.5101 12.6701 16.5001C12.6701 15.6901 12.9001 14.8901 13.3201 14.2101C13.5301 13.8601 14.0101 13.7901 14.3101 14.0601C14.5501 14.2801 14.5901 14.6301 14.4201 14.9001C14.1301 15.3801 13.9701 15.9301 13.9701 16.5001V16.7001C14.0601 18.0901 15.2801 19.1401 16.6701 19.1401H18.0401C18.0801 19.1501 18.5001 19.1601 18.7401 18.9701C18.9001 18.8501 19.1101 18.8201 19.3101 18.8801C19.8101 19.0301 19.9501 19.6901 19.5401 20.0001C19.0401 20.3801 18.3901 20.4701 18.0001 20.4501H14.6801C13.6401 20.4301 12.9101 20.6601 12.4701 21.1201C12.3001 21.2901 12.2001 21.4901 12.1301 21.6601H18.0001C21.3101 21.6401 21.8101 19.5801 21.8101 18.3601C21.8101 13.0401 16.7901 10.3901 15.5201 9.81008C15.2101 9.67008 14.9101 9.51008 14.6301 9.31008C13.8401 8.75008 13.4101 8.14008 13.1801 7.61008C11.7901 8.64008 10.2001 9.16008 9.45013 9.36008C9.23013 9.84008 9.08011 10.4201 9.30011 11.5301C9.47011 12.3701 10.2201 13.2501 10.4001 13.4201C11.3201 14.2501 11.2001 15.6301 11.1801 15.7801C11.1801 15.8701 10.9801 18.7901 9.8601 20.4501C9.7601 20.6001 9.60011 20.7001 9.43011 20.7301C9.4204 20.7301 9.39787 20.7324 9.36375 20.736C9.18693 20.7545 8.6988 20.8055 8.07013 20.7301C7.10013 20.6201 7.01013 20.9801 6.95013 21.2201L6.83011 21.6801H9.20013L9.1101 22.9801H5.16012L5.70013 20.9001C5.86013 20.2601 6.41011 19.2201 8.24011 19.4501C8.52009 19.4801 8.77009 19.4801 8.94009 19.4801C9.59009 18.3001 9.85013 16.3701 9.89013 15.6801C9.92013 15.4101 9.90012 14.7201 9.53012 14.3901C9.51012 14.3801 8.31012 13.1801 8.03012 11.8001C7.67012 10.0301 8.11011 9.15008 8.43011 8.51008C8.59011 8.20008 8.67013 8.03008 8.67013 7.83008C8.67013 7.55008 8.59012 7.34008 8.44012 7.20008C8.27012 7.05008 8.00013 6.98008 7.70013 7.02008H7.55011C6.64011 7.11008 4.96011 7.26008 4.08011 5.95008C3.74583 5.45796 3.65299 5.29346 3.43328 4.9042C3.41637 4.87425 3.3987 4.84295 3.38012 4.81008L3.32013 4.70008C3.00013 4.14008 3.12012 3.40008 3.69012 2.97008C3.86012 2.85008 4.06011 2.77008 4.27011 2.73008C5.24011 2.54008 5.99012 2.36008 6.35012 2.27008C7.31012 0.920081 8.5801 0.210081 10.1101 0.140081C12.1201 0.0400808 13.8101 1.14008 14.2801 2.87008C14.4201 3.38008 14.6901 4.75008 14.2201 6.44008C14.2201 6.44008 14.1301 7.30008 15.1701 8.13008ZM12.2001 6.21008C12.2701 6.29008 12.4601 6.39008 12.6601 6.36008V6.38008C12.6601 6.38008 12.8801 6.35008 12.9601 6.16008C13.3701 5.02008 13.1401 3.63008 13.0301 3.23008C12.7301 2.10008 11.5601 1.38008 10.1801 1.45008C8.99011 1.50008 8.04013 2.08008 7.29013 3.21008L7.15011 3.42008L6.91012 3.48008C6.90797 3.48062 6.90339 3.48179 6.89644 3.48358C6.77425 3.51489 5.92123 3.73353 4.71011 3.97008C4.57011 3.99008 4.50013 4.14008 4.57013 4.26008C4.60945 4.32563 4.65428 4.40217 4.7028 4.48502C4.83935 4.71819 5.00518 5.00136 5.16012 5.23008C5.57012 5.85008 6.46013 5.82008 7.42013 5.71008H7.58011C8.25011 5.65008 8.87012 5.84008 9.31012 6.24008C9.60012 6.51008 9.96011 7.00008 9.96011 7.83008V7.86008C10.3901 7.71008 10.8901 7.50008 11.4001 7.23008L11.2801 7.14008C10.7101 6.58008 10.0401 5.66008 9.8301 4.34008C9.77011 3.96008 10.0701 3.60008 10.4601 3.60008C10.7901 3.59008 11.0701 3.83008 11.1201 4.15008C11.2901 5.13008 11.7801 5.80008 12.2001 6.21008ZM6.5701 12.1501C6.6701 12.6201 6.83009 13.0501 7.03009 13.4501L7.0401 13.4601H5.28009L5.00009 13.9701C4.51009 14.7001 3.93008 15.1201 3.24008 15.2401C3.08008 15.2701 2.9301 15.2801 2.7901 15.2801C1.8601 15.2801 1.1301 14.7801 1.0401 14.7101L0.580078 14.3801L2.58008 10.6001C2.99008 9.82015 3.7901 9.34015 4.6701 9.34015H6.53009C6.45009 9.71015 6.40009 10.1401 6.40009 10.6401H4.68008C4.29008 10.6401 3.93008 10.8601 3.74008 11.2101L2.31009 13.8901C2.51009 13.9501 2.7601 14.0001 3.0101 13.9501C3.3401 13.8901 3.6301 13.6701 3.8801 13.2901L4.50009 12.1501H6.5701Z" fill="black"/>
</g>
</svg>
